<?xml version="1.0" encoding="UTF-8" standalone="no"?>
<!-- Uploaded to: SVG Repo, www.svgrepo.com, Generator: SVG Repo Mixer Tools -->

<svg
   width="800px"
   height="800px"
   viewBox="0 0 24 24"
   fill="none"
   version="1.1"
   id="svg1"
   sodipodi:docname="logo.svg"
   inkscape:version="1.4.2 (ebf0e940d0, 2025-05-08)"
   xmlns:inkscape="http://www.inkscape.org/namespaces/inkscape"
   xmlns:sodipodi="http://sodipodi.sourceforge.net/DTD/sodipodi-0.dtd"
   xmlns="http://www.w3.org/2000/svg"
   xmlns:svg="http://www.w3.org/2000/svg">
  <defs
     id="defs1" />
  <sodipodi:namedview
     id="namedview1"
     pagecolor="#ffffff"
     bordercolor="#000000"
     borderopacity="0.25"
     inkscape:showpageshadow="2"
     inkscape:pageopacity="0.0"
     inkscape:pagecheckerboard="0"
     inkscape:deskcolor="#d1d1d1"
     inkscape:zoom="0.56556252"
     inkscape:cx="258.15006"
     inkscape:cy="368.65951"
     inkscape:window-width="1699"
     inkscape:window-height="990"
     inkscape:window-x="20"
     inkscape:window-y="20"
     inkscape:window-maximized="0"
     inkscape:current-layer="svg1" />
  <g
     id="g2">
    <rect
       style="fill:#e8d8c9;fill-opacity:1;stroke:none;stroke-width:0.0231355;stroke-opacity:1"
       id="rect2"
       width="15.508068"
       height="3.1590502"
       x="3.8291521"
       y="18.14061" />
    <rect
       style="fill:#c17132;fill-opacity:1;stroke:none;stroke-width:0.0264203;stroke-opacity:1"
       id="rect1"
       width="16.397547"
       height="14.669271"
       x="3.9727457"
       y="2.5140502" />
    <path
       d="M 2.9336057,19.934418 V 5.4281876 c 0,-1.2694084 0,-1.904124 0.2470479,-2.3889722 C 3.3979524,2.6127209 3.7446966,2.2659767 4.1711911,2.0486779 4.6560393,1.80163 5.2907549,1.80163 6.5601633,1.80163 H 17.439836 c 1.269409,0 1.90417,0 2.388995,0.2470479 0.42646,0.2172988 0.77325,0.564043 0.990504,0.9905375 0.247059,0.4848482 0.247059,1.1195638 0.247059,2.3889722 V 17.667819 H 5.2002042 c -1.2518084,0 -2.2665985,1.014756 -2.2665985,2.266599 z m 0,0 c 0,1.251842 1.0147901,2.266598 2.2665985,2.266598 H 21.066394 M 8.6001021,6.3348271 H 15.399898 M 8.6001021,10.868024 h 6.7997959 m 4.533197,6.799795 v 4.533197"
       stroke="#000000"
       stroke-width="2.2666"
       stroke-linecap="round"
       stroke-linejoin="round"
       id="path1"
       style="fill:none;fill-opacity:1;stroke:#5e280e;stroke-opacity:1" />
  </g>
</svg>
